<?xml version="1.0" encoding="UTF-8"?>
<svg xmlns="http://www.w3.org/2000/svg" version="1.1" width="250" height="250" viewBox="0 0 250 250"><rect x="0" y="0" width="250" height="250" fill="#ffffff"/><g transform="scale(8.621)"><g transform="translate(0,0)"><path fill-rule="evenodd" d="M9 0L9 1L8 1L8 2L9 2L9 3L8 3L8 4L10 4L10 7L11 7L11 8L6 8L6 9L7 9L7 10L5 10L5 8L0 8L0 12L1 12L1 14L2 14L2 15L0 15L0 16L1 16L1 17L0 17L0 21L1 21L1 17L3 17L3 18L2 18L2 19L3 19L3 18L5 18L5 20L2 20L2 21L5 21L5 20L6 20L6 21L7 21L7 20L6 20L6 19L8 19L8 23L10 23L10 24L8 24L8 29L10 29L10 28L12 28L12 27L13 27L13 26L14 26L14 25L16 25L16 26L15 26L15 27L16 27L16 28L17 28L17 29L18 29L18 28L17 28L17 27L16 27L16 26L17 26L17 25L18 25L18 27L19 27L19 28L21 28L21 29L22 29L22 28L21 28L21 25L25 25L25 26L22 26L22 27L23 27L23 29L24 29L24 27L25 27L25 28L26 28L26 29L27 29L27 28L28 28L28 26L29 26L29 25L28 25L28 24L26 24L26 23L27 23L27 22L29 22L29 20L28 20L28 19L27 19L27 16L28 16L28 15L27 15L27 12L28 12L28 11L27 11L27 12L25 12L25 13L21 13L21 12L22 12L22 11L23 11L23 12L24 12L24 11L25 11L25 9L26 9L26 8L25 8L25 9L24 9L24 8L23 8L23 9L22 9L22 8L20 8L20 9L19 9L19 10L20 10L20 9L21 9L21 12L20 12L20 13L18 13L18 12L19 12L19 11L18 11L18 12L17 12L17 9L18 9L18 8L19 8L19 6L18 6L18 8L17 8L17 4L18 4L18 3L17 3L17 0L16 0L16 1L15 1L15 0L14 0L14 1L11 1L11 2L10 2L10 0ZM18 0L18 2L19 2L19 5L20 5L20 3L21 3L21 0ZM14 1L14 2L12 2L12 3L14 3L14 2L15 2L15 1ZM19 1L19 2L20 2L20 1ZM10 3L10 4L11 4L11 7L12 7L12 6L13 6L13 8L11 8L11 9L10 9L10 11L11 11L11 12L10 12L10 13L8 13L8 12L9 12L9 11L8 11L8 10L7 10L7 11L3 11L3 10L2 10L2 9L1 9L1 10L2 10L2 11L1 11L1 12L4 12L4 13L3 13L3 14L4 14L4 13L5 13L5 15L6 15L6 16L8 16L8 17L6 17L6 18L9 18L9 19L10 19L10 20L9 20L9 22L10 22L10 23L12 23L12 24L10 24L10 25L9 25L9 27L12 27L12 26L10 26L10 25L14 25L14 23L13 23L13 20L15 20L15 18L17 18L17 16L18 16L18 17L20 17L20 18L18 18L18 19L17 19L17 20L16 20L16 21L14 21L14 22L16 22L16 21L17 21L17 23L15 23L15 24L16 24L16 25L17 25L17 24L18 24L18 25L19 25L19 27L20 27L20 23L19 23L19 22L18 22L18 21L19 21L19 20L22 20L22 19L23 19L23 20L24 20L24 19L25 19L25 21L26 21L26 20L27 20L27 19L25 19L25 18L24 18L24 19L23 19L23 18L22 18L22 17L26 17L26 16L27 16L27 15L26 15L26 13L25 13L25 16L24 16L24 15L23 15L23 16L22 16L22 14L21 14L21 13L20 13L20 14L18 14L18 13L17 13L17 12L16 12L16 11L15 11L15 12L16 12L16 13L14 13L14 11L13 11L13 13L11 13L11 12L12 12L12 10L13 10L13 8L14 8L14 10L16 10L16 9L15 9L15 7L16 7L16 6L15 6L15 7L14 7L14 4L13 4L13 5L12 5L12 4L11 4L11 3ZM16 3L16 4L15 4L15 5L16 5L16 4L17 4L17 3ZM8 5L8 7L9 7L9 5ZM20 6L20 7L21 7L21 6ZM27 8L27 9L28 9L28 10L29 10L29 9L28 9L28 8ZM23 10L23 11L24 11L24 10ZM7 11L7 12L6 12L6 13L7 13L7 12L8 12L8 11ZM10 13L10 14L6 14L6 15L9 15L9 16L13 16L13 15L14 15L14 17L13 17L13 18L12 18L12 20L11 20L11 21L12 21L12 20L13 20L13 19L14 19L14 18L15 18L15 15L16 15L16 16L17 16L17 13L16 13L16 14L15 14L15 15L14 15L14 14L12 14L12 15L11 15L11 13ZM28 13L28 14L29 14L29 13ZM3 15L3 16L4 16L4 15ZM20 16L20 17L21 17L21 16ZM9 17L9 18L10 18L10 19L11 19L11 18L10 18L10 17ZM28 17L28 18L29 18L29 17ZM21 18L21 19L22 19L22 18ZM18 19L18 20L17 20L17 21L18 21L18 20L19 20L19 19ZM21 21L21 24L24 24L24 21ZM22 22L22 23L23 23L23 22ZM18 23L18 24L19 24L19 23ZM25 24L25 25L26 25L26 24ZM27 25L27 26L25 26L25 27L26 27L26 28L27 28L27 26L28 26L28 25ZM13 28L13 29L15 29L15 28ZM0 0L0 7L7 7L7 0ZM1 1L1 6L6 6L6 1ZM2 2L2 5L5 5L5 2ZM22 0L22 7L29 7L29 0ZM23 1L23 6L28 6L28 1ZM24 2L24 5L27 5L27 2ZM0 22L0 29L7 29L7 22ZM1 23L1 28L6 28L6 23ZM2 24L2 27L5 27L5 24Z" fill="#000000"/></g></g></svg>
