<?xml version="1.0" encoding="UTF-8"?>
<svg xmlns="http://www.w3.org/2000/svg" version="1.1" width="250" height="250" viewBox="0 0 250 250"><rect x="0" y="0" width="250" height="250" fill="#ffffff"/><g transform="scale(8.621)"><g transform="translate(0,0)"><path fill-rule="evenodd" d="M9 0L9 1L11 1L11 2L9 2L9 3L8 3L8 5L9 5L9 6L8 6L8 7L9 7L9 9L8 9L8 8L5 8L5 9L4 9L4 10L5 10L5 11L4 11L4 12L3 12L3 13L2 13L2 11L3 11L3 10L2 10L2 8L0 8L0 12L1 12L1 13L0 13L0 15L2 15L2 16L1 16L1 17L0 17L0 21L1 21L1 19L2 19L2 21L3 21L3 20L4 20L4 19L3 19L3 18L5 18L5 19L8 19L8 17L10 17L10 19L11 19L11 21L10 21L10 20L9 20L9 21L8 21L8 20L5 20L5 21L8 21L8 24L9 24L9 27L8 27L8 29L9 29L9 27L10 27L10 29L16 29L16 27L18 27L18 26L19 26L19 29L20 29L20 26L19 26L19 25L21 25L21 26L22 26L22 29L23 29L23 27L24 27L24 28L26 28L26 29L27 29L27 27L28 27L28 28L29 28L29 27L28 27L28 26L29 26L29 25L28 25L28 26L27 26L27 25L26 25L26 24L25 24L25 23L27 23L27 24L28 24L28 23L27 23L27 22L26 22L26 21L29 21L29 20L26 20L26 21L25 21L25 19L26 19L26 18L28 18L28 19L29 19L29 17L27 17L27 14L29 14L29 12L28 12L28 13L27 13L27 14L25 14L25 13L23 13L23 11L24 11L24 12L26 12L26 11L24 11L24 10L25 10L25 9L26 9L26 10L28 10L28 9L26 9L26 8L24 8L24 10L22 10L22 13L20 13L20 12L21 12L21 11L20 11L20 12L19 12L19 13L16 13L16 12L17 12L17 11L16 11L16 10L17 10L17 9L18 9L18 11L19 11L19 10L20 10L20 9L21 9L21 6L20 6L20 9L18 9L18 8L19 8L19 6L18 6L18 8L17 8L17 4L18 4L18 5L21 5L21 1L20 1L20 4L18 4L18 3L19 3L19 2L18 2L18 1L19 1L19 0L18 0L18 1L16 1L16 3L15 3L15 0L13 0L13 1L12 1L12 0ZM12 2L12 4L11 4L11 7L10 7L10 6L9 6L9 7L10 7L10 8L11 8L11 10L10 10L10 9L9 9L9 10L7 10L7 9L5 9L5 10L7 10L7 11L5 11L5 13L3 13L3 14L2 14L2 13L1 13L1 14L2 14L2 15L4 15L4 16L3 16L3 17L2 17L2 18L3 18L3 17L4 17L4 16L7 16L7 17L5 17L5 18L7 18L7 17L8 17L8 16L11 16L11 19L12 19L12 20L13 20L13 25L12 25L12 21L11 21L11 23L9 23L9 24L11 24L11 25L10 25L10 26L11 26L11 27L12 27L12 28L15 28L15 24L16 24L16 25L18 25L18 24L20 24L20 23L19 23L19 22L20 22L20 21L19 21L19 19L18 19L18 17L21 17L21 18L20 18L20 19L22 19L22 20L24 20L24 19L25 19L25 18L26 18L26 17L25 17L25 16L26 16L26 15L24 15L24 16L22 16L22 15L23 15L23 14L21 14L21 16L20 16L20 14L18 14L18 15L17 15L17 16L18 16L18 17L17 17L17 18L16 18L16 19L15 19L15 17L14 17L14 15L15 15L15 12L16 12L16 11L15 11L15 9L17 9L17 8L15 8L15 7L16 7L16 4L15 4L15 3L14 3L14 2ZM17 2L17 3L18 3L18 2ZM9 3L9 5L10 5L10 3ZM13 3L13 4L12 4L12 5L13 5L13 6L12 6L12 9L15 9L15 8L13 8L13 6L14 6L14 7L15 7L15 5L14 5L14 3ZM9 10L9 11L8 11L8 12L9 12L9 13L8 13L8 14L9 14L9 13L10 13L10 15L11 15L11 12L12 12L12 11L14 11L14 12L13 12L13 13L12 13L12 14L13 14L13 15L12 15L12 17L13 17L13 15L14 15L14 14L13 14L13 13L14 13L14 12L15 12L15 11L14 11L14 10L11 10L11 11L10 11L10 10ZM9 11L9 12L10 12L10 11ZM6 12L6 13L5 13L5 14L6 14L6 15L7 15L7 16L8 16L8 15L7 15L7 14L6 14L6 13L7 13L7 12ZM18 15L18 16L19 16L19 15ZM28 15L28 16L29 16L29 15ZM22 17L22 19L24 19L24 18L25 18L25 17ZM12 18L12 19L14 19L14 18ZM16 19L16 20L14 20L14 22L15 22L15 23L14 23L14 24L15 24L15 23L16 23L16 24L17 24L17 22L16 22L16 20L17 20L17 21L18 21L18 22L19 22L19 21L18 21L18 20L17 20L17 19ZM21 21L21 24L24 24L24 21ZM22 22L22 23L23 23L23 22ZM13 25L13 27L14 27L14 25ZM22 25L22 26L23 26L23 25ZM24 25L24 26L25 26L25 25ZM17 28L17 29L18 29L18 28ZM0 0L0 7L7 7L7 0ZM1 1L1 6L6 6L6 1ZM2 2L2 5L5 5L5 2ZM22 0L22 7L29 7L29 0ZM23 1L23 6L28 6L28 1ZM24 2L24 5L27 5L27 2ZM0 22L0 29L7 29L7 22ZM1 23L1 28L6 28L6 23ZM2 24L2 27L5 27L5 24Z" fill="#000000"/></g></g></svg>
