<?xml version="1.0" encoding="UTF-8"?>
<svg xmlns="http://www.w3.org/2000/svg" version="1.1" width="250" height="250" viewBox="0 0 250 250"><rect x="0" y="0" width="250" height="250" fill="#ffffff"/><g transform="scale(6.757)"><g transform="translate(0,0)"><path fill-rule="evenodd" d="M9 0L9 1L8 1L8 2L9 2L9 3L8 3L8 4L10 4L10 7L11 7L11 4L12 4L12 5L13 5L13 6L12 6L12 9L15 9L15 8L16 8L16 10L15 10L15 11L14 11L14 10L10 10L10 9L11 9L11 8L6 8L6 9L5 9L5 8L0 8L0 9L1 9L1 10L2 10L2 11L1 11L1 12L0 12L0 13L1 13L1 14L2 14L2 15L1 15L1 16L0 16L0 18L1 18L1 20L2 20L2 21L0 21L0 22L4 22L4 23L3 23L3 25L1 25L1 24L2 24L2 23L1 23L1 24L0 24L0 29L1 29L1 26L2 26L2 27L3 27L3 28L2 28L2 29L3 29L3 28L4 28L4 29L8 29L8 31L9 31L9 32L8 32L8 37L13 37L13 36L12 36L12 35L14 35L14 34L10 34L10 35L9 35L9 32L10 32L10 33L11 33L11 32L10 32L10 31L9 31L9 30L10 30L10 29L12 29L12 30L13 30L13 29L14 29L14 30L15 30L15 31L14 31L14 33L15 33L15 35L17 35L17 34L18 34L18 36L19 36L19 37L20 37L20 36L22 36L22 37L23 37L23 36L24 36L24 37L27 37L27 36L30 36L30 37L37 37L37 33L36 33L36 31L37 31L37 30L35 30L35 28L32 28L32 27L31 27L31 28L29 28L29 27L30 27L30 26L29 26L29 25L31 25L31 26L32 26L32 25L33 25L33 27L36 27L36 28L37 28L37 26L36 26L36 25L37 25L37 22L36 22L36 21L37 21L37 18L36 18L36 17L37 17L37 14L36 14L36 13L37 13L37 12L36 12L36 11L37 11L37 10L36 10L36 8L35 8L35 9L34 9L34 8L33 8L33 10L32 10L32 8L31 8L31 10L30 10L30 11L29 11L29 9L30 9L30 8L29 8L29 4L28 4L28 3L29 3L29 0L28 0L28 1L27 1L27 0L26 0L26 1L25 1L25 2L21 2L21 1L24 1L24 0L20 0L20 3L19 3L19 4L16 4L16 2L17 2L17 1L18 1L18 2L19 2L19 0L13 0L13 1L11 1L11 2L10 2L10 0ZM13 1L13 2L12 2L12 4L13 4L13 5L14 5L14 6L13 6L13 8L14 8L14 6L15 6L15 7L16 7L16 8L17 8L17 10L16 10L16 11L15 11L15 13L13 13L13 12L14 12L14 11L12 11L12 13L11 13L11 16L9 16L9 15L10 15L10 13L9 13L9 15L5 15L5 18L3 18L3 17L4 17L4 14L3 14L3 15L2 15L2 16L3 16L3 17L1 17L1 18L2 18L2 19L4 19L4 20L3 20L3 21L4 21L4 22L5 22L5 21L6 21L6 22L8 22L8 23L5 23L5 24L4 24L4 26L5 26L5 27L4 27L4 28L5 28L5 27L6 27L6 28L7 28L7 27L6 27L6 26L9 26L9 25L11 25L11 26L10 26L10 28L9 28L9 29L10 29L10 28L11 28L11 26L13 26L13 27L12 27L12 29L13 29L13 28L15 28L15 26L16 26L16 25L17 25L17 30L16 30L16 29L15 29L15 30L16 30L16 31L15 31L15 32L16 32L16 33L17 33L17 32L18 32L18 33L21 33L21 35L22 35L22 36L23 36L23 35L24 35L24 36L27 36L27 35L25 35L25 33L21 33L21 32L20 32L20 31L21 31L21 30L20 30L20 29L21 29L21 27L22 27L22 26L19 26L19 24L21 24L21 25L23 25L23 24L26 24L26 25L27 25L27 26L25 26L25 25L24 25L24 26L23 26L23 27L24 27L24 28L23 28L23 29L22 29L22 30L23 30L23 31L22 31L22 32L23 32L23 31L24 31L24 30L25 30L25 29L26 29L26 31L25 31L25 32L26 32L26 31L27 31L27 32L28 32L28 30L27 30L27 29L28 29L28 27L29 27L29 26L28 26L28 25L29 25L29 23L27 23L27 22L28 22L28 21L29 21L29 22L31 22L31 21L29 21L29 20L30 20L30 19L29 19L29 20L28 20L28 21L27 21L27 22L26 22L26 21L25 21L25 20L26 20L26 19L27 19L27 18L29 18L29 16L30 16L30 15L29 15L29 16L28 16L28 15L27 15L27 14L28 14L28 13L29 13L29 12L28 12L28 11L27 11L27 12L28 12L28 13L27 13L27 14L26 14L26 11L25 11L25 9L24 9L24 10L22 10L22 11L24 11L24 12L23 12L23 13L22 13L22 14L20 14L20 13L19 13L19 12L21 12L21 11L20 11L20 10L18 10L18 9L19 9L19 7L20 7L20 6L21 6L21 7L22 7L22 8L23 8L23 7L24 7L24 8L26 8L26 10L28 10L28 9L27 9L27 7L28 7L28 6L27 6L27 7L26 7L26 4L24 4L24 5L23 5L23 4L22 4L22 3L20 3L20 4L22 4L22 5L23 5L23 7L22 7L22 6L21 6L21 5L18 5L18 6L17 6L17 7L16 7L16 6L15 6L15 5L16 5L16 4L14 4L14 3L15 3L15 1ZM26 1L26 2L25 2L25 3L26 3L26 2L27 2L27 1ZM10 3L10 4L11 4L11 3ZM27 4L27 5L28 5L28 4ZM8 5L8 7L9 7L9 5ZM24 5L24 7L25 7L25 5ZM18 6L18 7L19 7L19 6ZM20 8L20 9L21 9L21 8ZM2 9L2 10L3 10L3 9ZM4 9L4 11L2 11L2 12L4 12L4 13L6 13L6 14L7 14L7 13L6 13L6 12L7 12L7 11L5 11L5 9ZM6 9L6 10L7 10L7 9ZM8 10L8 12L11 12L11 11L9 11L9 10ZM35 10L35 11L34 11L34 12L35 12L35 13L36 13L36 12L35 12L35 11L36 11L36 10ZM16 11L16 12L17 12L17 11ZM18 11L18 12L19 12L19 11ZM31 12L31 13L30 13L30 14L31 14L31 15L32 15L32 16L33 16L33 15L34 15L34 16L35 16L35 17L36 17L36 15L34 15L34 13L32 13L32 12ZM12 13L12 14L13 14L13 13ZM16 13L16 14L15 14L15 15L14 15L14 16L13 16L13 15L12 15L12 17L13 17L13 18L11 18L11 17L10 17L10 18L11 18L11 19L10 19L10 20L8 20L8 18L9 18L9 16L8 16L8 17L7 17L7 16L6 16L6 17L7 17L7 18L6 18L6 19L7 19L7 20L6 20L6 21L8 21L8 22L9 22L9 21L10 21L10 20L11 20L11 21L12 21L12 22L15 22L15 23L16 23L16 24L17 24L17 25L18 25L18 24L17 24L17 23L16 23L16 22L18 22L18 23L19 23L19 22L21 22L21 24L23 24L23 22L24 22L24 23L25 23L25 21L17 21L17 20L16 20L16 21L14 21L14 20L13 20L13 21L12 21L12 19L13 19L13 18L15 18L15 19L16 19L16 18L17 18L17 19L18 19L18 20L19 20L19 18L18 18L18 16L19 16L19 17L20 17L20 19L21 19L21 20L22 20L22 19L21 19L21 18L24 18L24 17L20 17L20 16L22 16L22 15L23 15L23 14L22 14L22 15L20 15L20 16L19 16L19 15L18 15L18 16L17 16L17 15L16 15L16 14L17 14L17 13ZM24 14L24 16L25 16L25 17L26 17L26 18L25 18L25 19L23 19L23 20L25 20L25 19L26 19L26 18L27 18L27 17L26 17L26 16L25 16L25 15L26 15L26 14ZM14 16L14 17L15 17L15 18L16 18L16 17L15 17L15 16ZM30 17L30 18L31 18L31 17ZM32 17L32 18L33 18L33 19L31 19L31 20L36 20L36 19L34 19L34 17ZM4 20L4 21L5 21L5 20ZM32 21L32 24L31 24L31 25L32 25L32 24L33 24L33 25L34 25L34 26L35 26L35 25L34 25L34 24L36 24L36 23L35 23L35 22L34 22L34 23L33 23L33 21ZM8 23L8 24L6 24L6 25L9 25L9 24L11 24L11 23ZM12 23L12 25L13 25L13 26L14 26L14 25L15 25L15 24L14 24L14 25L13 25L13 23ZM27 24L27 25L28 25L28 24ZM27 26L27 27L28 27L28 26ZM19 28L19 29L20 29L20 28ZM26 28L26 29L27 29L27 28ZM29 29L29 32L32 32L32 29ZM33 29L33 33L34 33L34 34L32 34L32 35L31 35L31 34L29 34L29 33L26 33L26 34L28 34L28 35L31 35L31 36L32 36L32 35L34 35L34 36L36 36L36 35L34 35L34 34L35 34L35 33L34 33L34 32L35 32L35 30L34 30L34 29ZM17 30L17 31L16 31L16 32L17 32L17 31L18 31L18 32L19 32L19 31L18 31L18 30ZM30 30L30 31L31 31L31 30ZM12 31L12 33L13 33L13 31ZM19 34L19 35L20 35L20 34ZM0 0L0 7L7 7L7 0ZM1 1L1 6L6 6L6 1ZM2 2L2 5L5 5L5 2ZM30 0L30 7L37 7L37 0ZM31 1L31 6L36 6L36 1ZM32 2L32 5L35 5L35 2ZM0 30L0 37L7 37L7 30ZM1 31L1 36L6 36L6 31ZM2 32L2 35L5 35L5 32Z" fill="#000000"/></g></g></svg>
