<?xml version="1.0" encoding="UTF-8"?>
<svg xmlns="http://www.w3.org/2000/svg" version="1.1" width="500" height="500" viewBox="0 0 500 500"><rect x="0" y="0" width="500" height="500" fill="#ffffff"/><g transform="scale(17.241)"><g transform="translate(0,0)"><path fill-rule="evenodd" d="M8 0L8 1L9 1L9 2L8 2L8 5L9 5L9 6L8 6L8 7L9 7L9 8L8 8L8 9L7 9L7 8L6 8L6 9L5 9L5 10L4 10L4 11L3 11L3 9L4 9L4 8L0 8L0 10L1 10L1 11L0 11L0 12L2 12L2 11L3 11L3 12L4 12L4 11L5 11L5 10L6 10L6 11L7 11L7 10L8 10L8 9L9 9L9 10L10 10L10 9L9 9L9 8L10 8L10 7L11 7L11 8L13 8L13 6L14 6L14 8L15 8L15 9L14 9L14 10L12 10L12 9L11 9L11 11L12 11L12 12L14 12L14 14L12 14L12 16L10 16L10 19L9 19L9 16L8 16L8 15L9 15L9 14L10 14L10 15L11 15L11 13L10 13L10 12L8 12L8 14L6 14L6 15L7 15L7 16L6 16L6 17L4 17L4 16L5 16L5 15L4 15L4 14L5 14L5 13L7 13L7 12L5 12L5 13L3 13L3 14L2 14L2 13L0 13L0 15L2 15L2 16L0 16L0 17L1 17L1 18L0 18L0 19L1 19L1 18L3 18L3 19L2 19L2 20L1 20L1 21L5 21L5 20L6 20L6 21L7 21L7 20L6 20L6 19L7 19L7 18L6 18L6 17L8 17L8 19L9 19L9 20L8 20L8 22L9 22L9 25L8 25L8 29L10 29L10 28L11 28L11 29L13 29L13 28L12 28L12 27L10 27L10 26L9 26L9 25L11 25L11 24L13 24L13 25L14 25L14 23L15 23L15 20L12 20L12 21L11 21L11 20L10 20L10 19L11 19L11 17L12 17L12 18L13 18L13 19L14 19L14 16L15 16L15 14L17 14L17 15L18 15L18 17L19 17L19 15L21 15L21 16L20 16L20 19L19 19L19 18L16 18L16 17L17 17L17 16L16 16L16 17L15 17L15 19L16 19L16 23L18 23L18 24L15 24L15 26L17 26L17 27L16 27L16 28L17 28L17 27L19 27L19 28L18 28L18 29L25 29L25 28L26 28L26 27L27 27L27 29L28 29L28 27L29 27L29 25L28 25L28 22L29 22L29 21L27 21L27 18L28 18L28 15L29 15L29 13L27 13L27 12L25 12L25 13L26 13L26 15L27 15L27 17L26 17L26 16L24 16L24 14L23 14L23 13L24 13L24 12L23 12L23 13L21 13L21 11L23 11L23 9L22 9L22 8L18 8L18 7L19 7L19 6L20 6L20 7L21 7L21 6L20 6L20 4L19 4L19 5L18 5L18 3L14 3L14 2L15 2L15 0L14 0L14 2L13 2L13 1L12 1L12 0L11 0L11 2L10 2L10 0ZM16 0L16 2L17 2L17 1L18 1L18 2L19 2L19 3L21 3L21 2L19 2L19 1L21 1L21 0ZM9 2L9 3L10 3L10 6L9 6L9 7L10 7L10 6L11 6L11 7L12 7L12 6L13 6L13 5L15 5L15 7L16 7L16 6L17 6L17 7L18 7L18 5L16 5L16 4L13 4L13 5L11 5L11 3L13 3L13 2L11 2L11 3L10 3L10 2ZM24 8L24 11L25 11L25 9L27 9L27 8ZM28 8L28 10L26 10L26 11L28 11L28 12L29 12L29 11L28 11L28 10L29 10L29 8ZM6 9L6 10L7 10L7 9ZM15 9L15 12L18 12L18 13L17 13L17 14L19 14L19 13L20 13L20 14L21 14L21 13L20 13L20 12L18 12L18 11L20 11L20 10L18 10L18 9ZM17 10L17 11L18 11L18 10ZM13 15L13 16L14 16L14 15ZM22 15L22 17L21 17L21 19L20 19L20 20L19 20L19 22L20 22L20 20L21 20L21 19L22 19L22 20L23 20L23 19L24 19L24 20L26 20L26 18L25 18L25 17L24 17L24 18L23 18L23 15ZM4 19L4 20L5 20L5 19ZM9 20L9 21L10 21L10 23L11 23L11 21L10 21L10 20ZM12 21L12 22L14 22L14 21ZM17 21L17 22L18 22L18 21ZM21 21L21 24L24 24L24 21ZM22 22L22 23L23 23L23 22ZM26 22L26 24L25 24L25 25L26 25L26 26L24 26L24 25L22 25L22 28L24 28L24 27L26 27L26 26L27 26L27 27L28 27L28 26L27 26L27 25L26 25L26 24L27 24L27 22ZM19 24L19 25L17 25L17 26L19 26L19 27L21 27L21 26L20 26L20 24ZM23 26L23 27L24 27L24 26ZM9 27L9 28L10 28L10 27ZM14 27L14 28L15 28L15 27ZM0 0L0 7L7 7L7 0ZM1 1L1 6L6 6L6 1ZM2 2L2 5L5 5L5 2ZM22 0L22 7L29 7L29 0ZM23 1L23 6L28 6L28 1ZM24 2L24 5L27 5L27 2ZM0 22L0 29L7 29L7 22ZM1 23L1 28L6 28L6 23ZM2 24L2 27L5 27L5 24Z" fill="#000000"/></g></g></svg>
